<svg width="105" height="68" viewBox="0 0 105 68" fill="none" xmlns="http://www.w3.org/2000/svg">
<path d="M97.1511 66.6347H7.84935C4.11383 66.6347 1.08545 63.6682 1.08545 60.0089V7.99114C1.08545 4.33186 4.11383 1.36528 7.84935 1.36528H97.1511C100.887 1.36528 103.915 4.33186 103.915 7.99114V60.0089C103.915 63.6682 100.887 66.6347 97.1511 66.6347Z" fill="#F9F9F9"/>
<path d="M103.148 38.7341L103.125 38.7501L103.005 38.8247C102.768 38.9761 102.54 39.1219 102.317 39.2641L102.299 39.2758C102.073 39.4196 101.851 39.5602 101.63 39.6978C98.0498 41.9218 94.3393 43.9181 90.5585 45.7914C81.8086 50.1274 72.7525 53.7395 63.4712 56.8251C56.3471 59.1941 49.1284 61.2407 41.8075 62.9307C38.0344 63.8015 34.2333 64.5581 30.4384 65.3366C29.8888 65.4498 29.3351 65.5473 28.7824 65.6481L28.7305 65.6651L22.7729 66.9853H97.1802C100.899 66.9853 103.915 64.0317 103.915 60.3881V38.2481L103.148 38.7341Z" fill="#FF6F00"/>
<path d="M97.1511 66.6347H7.84935C4.11383 66.6347 1.08545 63.6682 1.08545 60.0089V7.99114C1.08545 4.33186 4.11383 1.36528 7.84935 1.36528H97.1511C100.887 1.36528 103.915 4.33186 103.915 7.99114V60.0089C103.915 63.6682 100.887 66.6347 97.1511 66.6347Z" stroke="#303030" stroke-width="0.8" stroke-miterlimit="10" stroke-linecap="round" stroke-linejoin="round"/>
<path d="M10.5142 39.25C10.5142 34.8041 10.5142 30.4071 10.5142 25.9964C10.5668 25.9836 10.6147 25.9615 10.6627 25.9618C12.1622 25.9726 13.6667 25.9135 15.1599 26.0133C17.5531 26.1738 19.56 27.1268 20.7772 29.2369C23.1747 33.3929 20.5585 38.5883 15.8185 39.1385C14.6266 39.2765 13.4117 39.2227 12.2071 39.2481C11.6534 39.2598 11.0994 39.25 10.5142 39.25ZM13.1756 36.9726C13.6764 36.9726 14.1488 36.9971 14.6179 36.9674C15.6613 36.9015 16.6458 36.6585 17.4579 35.9528C19.322 34.3319 19.4275 31.2544 17.6856 29.4945C16.4284 28.2239 14.825 28.1968 13.1757 28.2343C13.1756 31.1543 13.1756 34.0475 13.1756 36.9726Z" fill="#303030"/>
<path d="M85.5762 25.9869C85.6264 25.9748 85.6561 25.9618 85.6857 25.9621C87.1849 25.9726 88.6855 25.9585 90.1833 26.0087C90.7084 26.0264 91.2451 26.1503 91.7481 26.3114C93.4557 26.859 94.4046 28.297 94.2914 30.0584C94.2272 31.0636 93.9668 31.9787 93.196 32.6995C92.7206 33.1434 92.1499 33.4095 91.5274 33.5853C91.4371 33.6104 91.3466 33.6336 91.2167 33.6685C92.632 35.5229 94.0317 37.3578 95.4756 39.2501C94.8301 39.2501 94.2581 39.2501 93.6861 39.2501C93.2876 39.2501 92.8884 39.237 92.4909 39.2549C92.2728 39.2647 92.1526 39.1838 92.0357 39.0116C90.9327 37.3875 89.8187 35.7705 88.7124 34.1476C88.5999 33.9822 88.4946 33.841 88.2243 33.9467C88.2243 35.6876 88.2243 37.4481 88.2243 39.2288C87.3217 39.2288 86.4581 39.2288 85.5762 39.2288C85.5762 34.8145 85.5762 30.411 85.5762 25.9869ZM88.2273 32.0802C89.0577 32.0808 89.878 32.1324 90.6281 31.7253C91.3189 31.3499 91.5636 30.7339 91.555 29.9939C91.5467 29.2809 91.2703 28.7115 90.6028 28.3778C89.8524 28.0021 89.044 28.0533 88.2273 28.0814C88.2273 29.4212 88.2273 30.7325 88.2273 32.0802Z" fill="#303030"/>
<path d="M76.3403 25.9745C78.8307 25.9745 81.3014 25.9745 83.7967 25.9745C83.7967 26.722 83.7967 27.4552 83.7967 28.2154C82.2036 28.2154 80.6132 28.2154 78.9978 28.2154C78.9978 29.2007 78.9978 30.1585 78.9978 31.1526C80.5326 31.1526 82.0581 31.1526 83.6076 31.1526C83.6076 31.9197 83.6076 32.6512 83.6076 33.4134C82.0685 33.4134 80.5423 33.4134 78.9948 33.4134C78.9948 34.6103 78.9948 35.7766 78.9948 36.981C80.5979 36.981 82.1953 36.981 83.8064 36.981C83.8064 37.7452 83.8064 38.4712 83.8064 39.2236C81.3171 39.2236 78.84 39.2236 76.3404 39.2236C76.3403 34.8175 76.3403 30.4152 76.3403 25.9745Z" fill="#303030"/>
<path d="M35.4215 27.237C34.9544 27.8345 34.5039 28.4101 34.0428 29.0001C33.5361 28.4708 33.0007 28.0445 32.2739 27.9539C31.5461 27.8635 30.8649 27.9796 30.3242 28.5099C29.7409 29.0816 29.8089 29.9348 30.5067 30.3588C30.9745 30.6426 31.5039 30.8295 32.0053 31.0597C32.7717 31.4129 33.5644 31.7205 34.2985 32.1295C35.3599 32.7208 35.8383 33.677 35.8866 34.8638C35.9505 36.4342 35.4654 37.7629 34.1364 38.7123C33.1336 39.4285 31.9806 39.6287 30.7637 39.5589C28.9113 39.4526 27.5509 38.5512 26.5664 37.1064C27.1121 36.5347 27.6454 35.976 28.1585 35.4388C28.4901 35.8136 28.7535 36.1916 29.0947 36.4805C29.8565 37.1259 30.7627 37.3366 31.7409 37.0985C32.7347 36.8572 33.3316 35.9124 33.1225 34.9865C33.014 34.5044 32.7287 34.1372 32.2892 33.9216C31.7938 33.679 31.2714 33.4898 30.7604 33.2781C30.211 33.0505 29.648 32.8496 29.1147 32.59C27.4064 31.7583 26.883 30.3067 27.3698 28.4966C27.777 26.9826 29.1882 25.923 30.9335 25.7717C32.5779 25.6282 34.0411 26.0923 35.3146 27.1242C35.3462 27.1496 35.3709 27.1832 35.4215 27.237Z" fill="#303030"/>
<path d="M62.1255 25.9601C63.0524 25.9601 63.952 25.9527 64.8515 25.9722C64.9355 25.9738 65.049 26.1297 65.0929 26.2361C66.0278 28.5236 66.954 30.8151 67.8829 33.1049C68.111 33.6675 68.3414 34.2291 68.5931 34.8452C68.657 34.7053 68.7046 34.6104 68.7452 34.5129C69.8796 31.7498 71.0149 28.9877 72.1432 26.223C72.2191 26.0374 72.3033 25.9494 72.5257 25.9533C73.3747 25.9677 74.224 25.9592 75.1226 25.9592C75.0713 26.0913 75.0354 26.1927 74.9928 26.2919C73.1253 30.6351 71.2559 34.9773 69.3955 39.3231C69.3072 39.5299 69.1994 39.6007 68.9793 39.5882C68.676 39.5706 68.3694 39.5997 68.0674 39.5755C67.9605 39.567 67.806 39.4823 67.7687 39.3939C65.8873 34.9672 64.0169 30.5359 62.1461 26.1047C62.1348 26.0782 62.1368 26.0456 62.1255 25.9601Z" fill="#303030"/>
<path d="M47.1964 29.489C46.7706 29.1765 46.4067 28.8618 45.9985 28.6182C44.4227 27.6786 42.3985 27.8981 40.9772 29.1374C38.8554 30.9879 38.954 34.599 41.1713 36.2717C42.8337 37.5257 45.1516 37.4618 46.7383 36.1168C46.8718 36.004 47.004 35.8898 47.1971 35.7248C47.1971 35.9234 47.1971 36.0607 47.1971 36.1983C47.1968 36.9795 47.1928 37.7606 47.2008 38.542C47.2024 38.708 47.1499 38.7954 46.9921 38.8694C43.7546 40.3827 39.787 39.3508 37.86 36.4335C35.2002 32.4063 37.3047 26.9017 42.4089 25.8222C43.987 25.4895 45.5181 25.6552 46.9684 26.3789C47.0626 26.4262 47.1855 26.5394 47.1868 26.6238C47.2021 27.5667 47.1964 28.5106 47.1964 29.489Z" fill="#303030"/>
<path d="M62.5793 32.615C62.6443 36.4169 59.4501 39.5207 55.4013 39.5149C51.3255 39.509 48.1956 36.5362 48.2189 32.5348C48.2412 28.7558 51.4121 25.7772 55.4043 25.7531C59.4714 25.7292 62.6439 28.8595 62.5793 32.615Z" fill="#FF6F00"/>
<path d="M25.5176 39.2334C24.6374 39.2334 23.7821 39.2334 22.9048 39.2334C22.9048 34.8142 22.9048 30.412 22.9048 25.9843C23.7728 25.9843 24.6347 25.9843 25.5176 25.9843C25.5176 30.3947 25.5176 34.7973 25.5176 39.2334Z" fill="#303030"/>
<path d="M8 19H4.40909V7.36364H8.15909C9.28788 7.36364 10.2538 7.59659 11.0568 8.0625C11.8598 8.52462 12.4754 9.18939 12.9034 10.0568C13.3314 10.9205 13.5455 11.9545 13.5455 13.1591C13.5455 14.3712 13.3295 15.4148 12.8977 16.2898C12.4659 17.161 11.8371 17.8314 11.0114 18.3011C10.1856 18.767 9.18182 19 8 19ZM5.81818 17.75H7.90909C8.87121 17.75 9.66856 17.5644 10.3011 17.1932C10.9337 16.822 11.4053 16.2936 11.7159 15.608C12.0265 14.9223 12.1818 14.1061 12.1818 13.1591C12.1818 12.2197 12.0284 11.411 11.7216 10.733C11.4148 10.0511 10.9564 9.52841 10.3466 9.16477C9.73674 8.79735 8.97727 8.61364 8.06818 8.61364H5.81818V17.75ZM19.3864 19.1818C18.5455 19.1818 17.8201 18.9962 17.2102 18.625C16.6042 18.25 16.1364 17.7273 15.8068 17.0568C15.4811 16.3826 15.3182 15.5985 15.3182 14.7045C15.3182 13.8106 15.4811 13.0227 15.8068 12.3409C16.1364 11.6553 16.5947 11.1212 17.1818 10.7386C17.7727 10.3523 18.4621 10.1591 19.25 10.1591C19.7045 10.1591 20.1534 10.2348 20.5966 10.3864C21.0398 10.5379 21.4432 10.7841 21.8068 11.125C22.1705 11.4621 22.4602 11.9091 22.6761 12.4659C22.892 13.0227 23 13.7083 23 14.5227V15.0909H16.2727V13.9318H21.6364C21.6364 13.4394 21.5379 13 21.3409 12.6136C21.1477 12.2273 20.8712 11.9223 20.5114 11.6989C20.1553 11.4754 19.7348 11.3636 19.25 11.3636C18.7159 11.3636 18.2538 11.4962 17.8636 11.7614C17.4773 12.0227 17.1799 12.3636 16.9716 12.7841C16.7633 13.2045 16.6591 13.6553 16.6591 14.1364V14.9091C16.6591 15.5682 16.7727 16.1269 17 16.5852C17.2311 17.0398 17.5511 17.3864 17.9602 17.625C18.3693 17.8598 18.8447 17.9773 19.3864 17.9773C19.7386 17.9773 20.0568 17.928 20.3409 17.8295C20.6288 17.7273 20.8769 17.5758 21.0852 17.375C21.2936 17.1705 21.4545 16.9167 21.5682 16.6136L22.8636 16.9773C22.7273 17.4167 22.4981 17.803 22.1761 18.1364C21.8542 18.4659 21.4564 18.7235 20.983 18.9091C20.5095 19.0909 19.9773 19.1818 19.3864 19.1818ZM18.5682 9.09091L19.9545 6.45455H21.5227L19.75 9.09091H18.5682ZM25.2216 19V7.36364H26.5625V11.6591H26.6761C26.7746 11.5076 26.911 11.3144 27.0852 11.0795C27.2633 10.8409 27.517 10.6288 27.8466 10.4432C28.1799 10.2538 28.6307 10.1591 29.1989 10.1591C29.9337 10.1591 30.5814 10.3428 31.142 10.7102C31.7027 11.0777 32.1402 11.5985 32.4545 12.2727C32.7689 12.947 32.9261 13.7424 32.9261 14.6591C32.9261 15.5833 32.7689 16.3845 32.4545 17.0625C32.1402 17.7367 31.7045 18.2595 31.1477 18.6307C30.5909 18.9981 29.9489 19.1818 29.2216 19.1818C28.661 19.1818 28.2121 19.089 27.875 18.9034C27.5379 18.714 27.2784 18.5 27.0966 18.2614C26.9148 18.0189 26.7746 17.8182 26.6761 17.6591H26.517V19H25.2216ZM26.5398 14.6364C26.5398 15.2955 26.6364 15.8769 26.8295 16.3807C27.0227 16.8807 27.3049 17.2727 27.6761 17.5568C28.0473 17.8371 28.5019 17.9773 29.0398 17.9773C29.6004 17.9773 30.0682 17.8295 30.4432 17.5341C30.822 17.2348 31.1061 16.8333 31.2955 16.3295C31.4886 15.822 31.5852 15.2576 31.5852 14.6364C31.5852 14.0227 31.4905 13.4697 31.3011 12.9773C31.1155 12.4811 30.8333 12.089 30.4545 11.8011C30.0795 11.5095 29.608 11.3636 29.0398 11.3636C28.4943 11.3636 28.036 11.5019 27.6648 11.7784C27.2936 12.0511 27.0133 12.4337 26.8239 12.9261C26.6345 13.4148 26.5398 13.9848 26.5398 14.6364ZM34.9773 19V10.2727H36.3182V19H34.9773ZM35.6591 8.81818C35.3977 8.81818 35.1723 8.72917 34.983 8.55114C34.7973 8.37311 34.7045 8.15909 34.7045 7.90909C34.7045 7.65909 34.7973 7.44508 34.983 7.26705C35.1723 7.08902 35.3977 7 35.6591 7C35.9205 7 36.1439 7.08902 36.3295 7.26705C36.5189 7.44508 36.6136 7.65909 36.6136 7.90909C36.6136 8.15909 36.5189 8.37311 36.3295 8.55114C36.1439 8.72917 35.9205 8.81818 35.6591 8.81818ZM42.5696 10.2727V11.4091H38.0469V10.2727H42.5696ZM39.3651 8.18182H40.706V16.5C40.706 16.8788 40.7609 17.1629 40.8707 17.3523C40.9844 17.5379 41.1283 17.6629 41.3026 17.7273C41.4806 17.7879 41.6681 17.8182 41.8651 17.8182C42.0128 17.8182 42.134 17.8106 42.2287 17.7955C42.3234 17.7765 42.3991 17.7614 42.456 17.75L42.7287 18.9545C42.6378 18.9886 42.5109 19.0227 42.348 19.0568C42.1851 19.0947 41.9787 19.1136 41.7287 19.1136C41.3499 19.1136 40.9787 19.0322 40.6151 18.8693C40.2552 18.7064 39.956 18.4583 39.7173 18.125C39.4825 17.7917 39.3651 17.3712 39.3651 16.8636V8.18182ZM48.0384 19.1818C47.2505 19.1818 46.5592 18.9943 45.9645 18.6193C45.3736 18.2443 44.9115 17.7197 44.5781 17.0455C44.2486 16.3712 44.0838 15.5833 44.0838 14.6818C44.0838 13.7727 44.2486 12.9792 44.5781 12.3011C44.9115 11.6231 45.3736 11.0966 45.9645 10.7216C46.5592 10.3466 47.2505 10.1591 48.0384 10.1591C48.8262 10.1591 49.5156 10.3466 50.1065 10.7216C50.7012 11.0966 51.1634 11.6231 51.4929 12.3011C51.8262 12.9792 51.9929 13.7727 51.9929 14.6818C51.9929 15.5833 51.8262 16.3712 51.4929 17.0455C51.1634 17.7197 50.7012 18.2443 50.1065 18.6193C49.5156 18.9943 48.8262 19.1818 48.0384 19.1818ZM48.0384 17.9773C48.6368 17.9773 49.1293 17.8239 49.5156 17.517C49.902 17.2102 50.188 16.8068 50.3736 16.3068C50.5592 15.8068 50.652 15.2652 50.652 14.6818C50.652 14.0985 50.5592 13.5549 50.3736 13.0511C50.188 12.5473 49.902 12.1402 49.5156 11.8295C49.1293 11.5189 48.6368 11.3636 48.0384 11.3636C47.4399 11.3636 46.9474 11.5189 46.5611 11.8295C46.1747 12.1402 45.8887 12.5473 45.7031 13.0511C45.5175 13.5549 45.4247 14.0985 45.4247 14.6818C45.4247 15.2652 45.5175 15.8068 45.7031 16.3068C45.8887 16.8068 46.1747 17.2102 46.5611 17.517C46.9474 17.8239 47.4399 17.9773 48.0384 17.9773Z" fill="black"/>
</svg>
